<svg width="217" height="46" viewBox="0 0 217 46" fill="none" xmlns="http://www.w3.org/2000/svg">
  <!-- Reusing shape style from your original -->
  <path d="M22.9997 0C35.7026 0 45.9997 10.2971 45.9997 23V39.1C45.9997 40.93 45.2728 42.685 43.9788 43.979C42.6848 45.273 40.9297 46 39.0997 46H24.1497V35.9099C24.1497 33.6076 24.29 31.2225 25.4975 29.2629C26.362 27.8586 27.5185 26.6566 28.8884 25.7385C30.2583 24.8204 31.8096 24.2077 33.4371 23.9419L33.8776 23.8706C34.0592 23.8085 34.2168 23.6912 34.3284 23.5351C34.44 23.379 34.5 23.1919 34.5 23C34.5 10.2971 24.2026 0 11.4997 0C5.14839 0 0 5.14839 0 11.5V34.5C0 40.8516 5.14839 46 11.4997 46H22.9997V0Z" fill="#0D47A1"/>
  
  <!-- Text for CuraSync with modern styling -->
  <text x="60" y="32" font-family="Segoe UI, sans-serif" font-size="20" fill="#0D47A1" letter-spacing="1.2">
    CuraSync
  </text>
</svg>